<?xml version="1.0" standalone="no"?>
<!DOCTYPE svg PUBLIC "-//W3C//DTD SVG 20010904//EN"
 "http://www.w3.org/TR/2001/REC-SVG-20010904/DTD/svg10.dtd">
<svg version="1.0" xmlns="http://www.w3.org/2000/svg"
 width="500.000000pt" height="500.000000pt" viewBox="0 0 500.000000 500.000000"
 preserveAspectRatio="xMidYMid meet">

<g transform="translate(0.000000,500.000000) scale(0.100000,-0.100000)"
fill="#000000" stroke="none">
<path d="M0 2500 l0 -2500 2500 0 2500 0 0 2500 0 2500 -2500 0 -2500 0 0
-2500z m1420 -120 l0 -1020 100 0 100 0 0 -30 0 -30 -185 0 -185 0 0 1050 0
1050 85 0 85 0 0 -1020z m1608 1006 c-2 -7 -115 -343 -253 -745 -284 -831
-266 -794 -318 -638 l-29 87 45 133 c75 221 385 1120 396 1150 10 26 13 27 86
27 60 0 76 -3 73 -14z m-1170 -688 c10 -29 119 -342 242 -695 l223 -643 93 0
93 0 -11 -30 -10 -30 -171 2 -170 3 -174 495 -173 495 0 227 c0 219 1 228 19
228 14 0 25 -14 39 -52z m1332 -643 l0 -695 105 0 105 0 0 -30 0 -30 -195 0
-195 0 0 528 0 527 67 197 c61 179 70 198 91 198 l22 0 0 -695z"/>
</g>
</svg>
